<svg id="svg" version="1.1" xmlns="http://www.w3.org/2000/svg" xmlns:xlink="http://www.w3.org/1999/xlink" width="400" height="210.5263157894737" viewBox="0, 0, 400,210.5263157894737"><g id="svgg"><path id="path0" d="M46.053 63.579 C 32.632 71.396,33.564 86.335,47.022 79.133 C 64.377 69.845,74.601 72.387,72.734 85.526 C 71.530 94.005,66.942 97.841,56.579 99.034 C 39.089 101.046,36.790 115.753,53.947 115.870 C 70.899 115.985,80.295 123.400,77.987 134.841 C 76.393 142.741,71.513 144.645,53.785 144.283 C 30.563 143.808,27.378 146.325,37.895 156.842 C 48.946 167.894,78.243 164.341,92.344 150.239 C 107.739 134.845,108.326 129.317,95.863 117.105 C 87.299 108.714,87.170 106.643,94.412 93.824 C 108.724 68.491,74.437 47.047,46.053 63.579 M132.746 90.834 C 109.577 134.947,110.149 142.105,136.842 142.105 C 154.386 142.105,157.895 143.860,157.895 152.632 C 157.895 159.649,161.404 163.158,168.421 163.158 C 175.439 163.158,178.947 159.649,178.947 152.632 C 178.947 146.842,181.316 142.105,184.211 142.105 C 187.105 142.105,189.474 138.553,189.474 134.211 C 189.474 129.868,187.105 126.316,184.211 126.316 C 181.242 126.316,178.947 111.404,178.947 92.105 C 178.947 42.061,158.656 41.503,132.746 90.834 M210.526 68.421 C 187.038 91.909,205.190 130.804,236.699 124.502 C 254.165 121.009,256.305 124.543,245.594 139.191 C 240.478 146.189,233.955 148.139,221.694 146.340 C 208.369 144.384,205.161 145.613,206.406 152.196 C 212.062 182.107,265.848 155.016,271.138 119.591 C 278.649 69.291,241.239 37.709,210.526 68.421 M298.684 63.579 C 293.618 66.530,289.474 72.399,289.474 76.622 C 289.474 82.801,291.393 83.101,299.303 78.161 C 330.559 58.641,334.564 94.410,304.896 128.115 C 293.115 141.499,284.966 154.859,286.786 157.804 C 292.434 166.943,357.895 164.605,357.895 155.263 C 357.895 149.547,352.020 147.368,336.601 147.368 L 315.307 147.368 333.969 122.927 C 366.811 79.916,342.072 38.308,298.684 63.579 M247.589 84.622 C 250.808 90.637,252.086 99.093,250.429 103.412 C 246.295 114.183,224.247 110.281,221.977 98.377 C 217.468 74.726,236.750 64.370,247.589 84.622 M157.895 102.632 C 157.895 124.353,156.810 126.316,144.805 126.316 L 131.716 126.316 143.222 102.632 C 149.551 89.605,155.441 78.947,156.312 78.947 C 157.182 78.947,157.895 89.605,157.895 102.632 " stroke="none" fill="#000000" fill-rule="evenodd"></path></g></svg>